<svg width="20" height="17" fill="none" xmlns="http://www.w3.org/2000/svg"><path d="M18.365 4.66a6.399 6.399 0 0 0 .325-2.028A5.83 5.83 0 0 0 18.076 0c-.857 0-1.614.157-2.271.47-.657.315-1.406.802-2.247 1.462a14.186 14.186 0 0 0-3.366-.387 15.92 15.92 0 0 0-3.714.423C5.621 1.292 4.864.795 4.207.477 3.55.159 2.789 0 1.923 0a5.827 5.827 0 0 0-.613 2.632c0 .709.108 1.393.325 2.053C.545 5.965 0 7.558 0 9.465c0 1.675.248 3.007.745 3.998A5.02 5.02 0 0 0 1.78 14.85c.424.402.91.728 1.454.978.545.25 1.094.457 1.647.622.553.165 1.164.285 1.833.362.669.076 1.26.127 1.773.15.512.025 1.081.037 1.706.037.737 0 1.406-.018 2.008-.054a17.572 17.572 0 0 0 2.06-.266c.774-.14 1.455-.332 2.044-.573A6.506 6.506 0 0 0 18 15.069c.54-.452.963-.987 1.268-1.607.489-.998.733-2.33.733-3.996 0-1.916-.545-3.518-1.635-4.805zm-1.442 8.784c-.256.527-.581.942-.973 1.244-.393.302-.882.543-1.467.724-.585.181-1.146.3-1.683.356-.537.057-1.133.085-1.79.085H8.99a17.25 17.25 0 0 1-1.79-.085 8.806 8.806 0 0 1-1.683-.356c-.585-.18-1.074-.422-1.467-.724-.392-.302-.717-.716-.973-1.244-.257-.527-.385-1.145-.385-1.853 0-.966.277-1.787.83-2.463.552-.676 1.302-1.014 2.247-1.014.345 0 1.126.084 2.344.253.569.089 1.198.133 1.887.133.69 0 1.318-.044 1.887-.133 1.234-.17 2.015-.253 2.344-.253.945 0 1.694.338 2.247 1.014.553.676.83 1.497.83 2.463 0 .708-.129 1.326-.385 1.853z" fill="#000"/><path d="M7.35 10.443C7.11 10.148 6.828 10 6.5 10c-.328 0-.611.148-.85.443a2.651 2.651 0 0 0-.503.989c-.098.365-.147.72-.147 1.068 0 .347.049.703.147 1.068.097.364.265.694.503.989.239.295.522.443.85.443.328 0 .611-.148.85-.443a2.64 2.64 0 0 0 .503-.99c.098-.364.147-.72.147-1.067s-.049-.703-.147-1.068a2.652 2.652 0 0 0-.503-.99zm7 0c-.239-.295-.522-.443-.85-.443-.328 0-.611.148-.85.443a2.649 2.649 0 0 0-.503.989c-.098.365-.147.72-.147 1.068 0 .347.049.703.147 1.068.097.364.265.694.503.989.239.295.522.443.85.443.328 0 .611-.148.85-.443.238-.295.406-.625.504-.99.097-.364.146-.72.146-1.067s-.049-.703-.146-1.068a2.657 2.657 0 0 0-.504-.99z" fill="#000"/></svg>