<svg width="20" height="20" viewBox="0 0 20 20" fill="none" xmlns="http://www.w3.org/2000/svg">
<g clip-path="url(#clip0)">
<path d="M18.8949 0.000999451H1.10383C0.494616 0.000999451 0 0.494635 0 1.10485V18.8962C0 19.5064 0.494616 20.0007 1.10383 20.0007H10.682V12.2556H8.07587V9.23683H10.682V7.0107C10.682 4.42792 12.259 3.02077 14.5635 3.02077C15.6683 3.02077 16.6157 3.10343 16.892 3.13933V5.83901L15.2936 5.83967C14.0406 5.83967 13.7989 6.43539 13.7989 7.30905V9.23585H16.7883L16.3974 12.2543H13.7985V19.9997H18.8945C19.5044 19.9997 19.9993 19.5047 19.9993 18.8962V1.10419C19.999 0.494636 19.5047 0.000999451 18.8949 0.000999451Z" fill="black"/>
</g>
<defs>
<clipPath id="clip0">
<rect width="20" height="20" fill="white"/>
</clipPath>
</defs>
</svg>
