<svg width="20" height="20" fill="none" xmlns="http://www.w3.org/2000/svg"><path d="M20 12.162v7.394h-4.287v-6.9c0-1.732-.62-2.915-2.171-2.915-1.185 0-1.89.797-2.2 1.568-.113.276-.142.66-.142 1.045v7.202H6.912s.058-11.685 0-12.895H11.2v1.827l-.028.042h.028v-.042c.57-.877 1.587-2.13 3.864-2.13C17.885 6.358 20 8.2 20 12.162zM2.426.444C.96.444 0 1.407 0 2.672c0 1.238.932 2.23 2.37 2.23h.028c1.496 0 2.426-.992 2.426-2.23C4.795 1.407 3.894.444 2.426.444zM.255 19.556H4.54V6.66H.255v12.895z" fill="#000"/></svg>